<svg viewBox="289.9013 108.1024 298.0641 149.0725" width="5000" height="2500.678545319614" xmlns="http://www.w3.org/2000/svg" xmlns:xlink="http://www.w3.org/1999/xlink" preserveAspectRatio="none"><defs></defs><style>.aD6z1nYkhcolor {fill:#FFFFFF;fill-opacity:1;}.aD6z1nYkhstrokeColor-str {stroke:#D9D9D9;stroke-opacity:1;}.aPx7Apd4gc0filter-floo {flood-color:#D03737;flood-opacity:0.5;}.ashadowa4vZob0AIFd8-floo {flood-color:#4B4B4B;flood-opacity:0.5;}</style><defs>
      <filter
        x="289.9013"
        y="229.5139"
        width="262.7995"
        height="27.661"
        id="Px7Apd4gc"
        filterUnits="userSpaceOnUse"
        primitiveUnits="userSpaceOnUse"
        color-interpolation-filters="sRGB">
        <feMerge><feMergeNode in="SourceGraphic" /></feMerge>
      </filter>
      <filter
        x="392.0347"
        y="108.1024"
        width="195.9307"
        height="96.3666"
        id="LH4pca1VU"
        filterUnits="userSpaceOnUse"
        primitiveUnits="userSpaceOnUse"
        color-interpolation-filters="sRGB">
        
    <feGaussianBlur in="SourceGraphic" stdDeviation="0"/>
    <feOffset dx="4" dy="4" result="VWeuGO4ZBfS"/>
    <feFlood flood-color="#4B4B4B" flood-opacity="0.5" in="VWeuGO4ZBfS" />
    <feComposite  in2="VWeuGO4ZBfS" operator="in" result="t-RV-ktwNfk"/><feMerge result="W8dg2xi0ci3"><feMergeNode in="t-RV-ktwNfk" /><feMergeNode in="SourceGraphic" /></feMerge>
      </filter></defs><g opacity="1" transform="rotate(0 289.9013 229.5139)">
<svg width="262.7995" height="27.661" x="289.9013" y="229.5139" version="1.1" preserveAspectRatio="none" viewBox="1.12 -27.12 265.64 27.96">
  <g transform="matrix(1 0 0 1 0 0)" class="aD6z1nYkhcolor"><path id="id-D6z1nYkh11" d="M17.68-13.92L17.68-13.92Q20.88-13.44 22.64-11.58Q24.40-9.72 24.40-7.24L24.40-7.24Q24.40-4.04 21.58-2.06Q18.76-0.08 14 0L14 0L1.36 0L1.12-1.28L4.52-2.72L4.52-23.88L1.68-24.16L1.72-26.16Q8.68-26.48 13.20-26.48Q17.72-26.48 20.40-24.64Q23.08-22.80 23.08-19.76L23.08-19.76Q23.08-17.68 21.70-16Q20.32-14.32 17.68-13.92ZM14.36-23.76L9.40-23.16L9.40-14.88L11.36-14.88Q14.68-14.88 16.30-16.16Q17.92-17.44 17.92-19.32L17.92-19.32Q17.92-20.84 16.92-22.14Q15.92-23.44 14.36-23.76L14.36-23.76ZM9.40-3.08L13-2.76L13.80-2.72Q16.32-2.72 17.68-4.04Q19.04-5.36 19.04-7.24L19.04-7.24Q19.04-9.40 17.34-10.94Q15.64-12.48 13.04-12.48L13.04-12.48L9.40-12.48L9.40-3.08Z M51.24-2.28L53.88-1.96L53.84 0L46.80 0L41.20-10.28L37.16-10.24L37.16-2.48L41.12-1.96L41.08 0L29.12 0L28.88-1.28L32.28-2.72L32.28-23.88L29.40-24.16L29.44-26.16L41.40-26.48Q45.84-26.48 48.62-24.24Q51.40-22 51.40-18.56L51.40-18.56Q51.40-16.16 49.94-14.08Q48.48-12 45.88-11L45.88-11L51.24-2.28ZM37.16-23.16L37.16-13.28Q38.96-12.96 40.20-12.96L40.20-12.96Q43.48-12.96 44.84-14.56Q46.20-16.16 46.20-18.52L46.20-18.52Q46.20-22.28 43.44-23.76L43.44-23.76L37.16-23.16Z M65.32-2.44L69.12-1.96L69.08 0L57.28 0L57.04-1.28L60.44-2.72L60.44-23.80L57.36-24.20L57.40-26.16L68.48-26.16L68.72-24.88Q67.72-24.32 65.32-23.44L65.32-23.44L65.32-2.44Z M85.52-26.48L85.52-26.48Q90.92-26.48 94.46-22.64Q98.00-18.80 98.00-13.28L98.00-13.28Q98.00-7.40 94.38-3.74Q90.76-0.08 84.72 0L84.72 0L72.80 0L72.56-1.28L75.96-2.72L75.96-23.88L73.12-24.16L73.16-26.16Q79.80-26.48 85.52-26.48ZM84.24-3L84.24-3Q88.04-3 90.36-5.86Q92.68-8.72 92.68-13.16L92.68-13.16Q92.68-16.60 91.22-19.52Q89.76-22.44 87.44-23.76L87.44-23.76L80.84-23.16L80.84-3.48Q82.48-3 84.24-3Z M125.48-9.64L125.48-2.84L125.52-2.80L117.36 0.80L116.24 0.84Q111.76 0.84 108.74-1.08Q105.72-3 104.26-6.06Q102.80-9.12 102.80-12.56L102.80-12.56Q102.80-18.84 106.74-22.90Q110.68-26.96 117-26.96L117-26.96Q121.88-26.96 125.24-24.52L125.24-24.52L125.20-24.40L125.24-23.44Q125.24-20.92 124.48-18.24L124.48-18.24L121.48-18.24L120.80-22.28Q117.60-23.80 114.08-23.80L114.08-23.80L112.56-23.72Q110.24-22.28 109.08-19.42Q107.92-16.56 107.92-13.12L107.92-13.12Q107.92-8.56 110.30-5.62Q112.68-2.68 116.52-2.64L116.52-2.64Q118.24-2.60 120.84-3.20L120.84-3.20L120.84-9.04Q118.20-9.92 116.64-10.72L116.64-10.72L116.88-12.08L128.52-12.08L128.56-10.16L125.48-9.64Z M149.24-7.76L151.96-7.56Q152.04-3.56 151.48 0L151.48 0L131.72 0L131.48-1.28L134.88-2.72L134.88-23.88L132.00-24.16L132.04-26.16L151.60-26.16L151.64-25.04Q151.64-22.20 151.08-19.08L151.08-19.08L148.32-19.08L147.72-22.92L139.76-23.44L139.76-14.36L148.68-15.08L148.68-11.32L139.76-11.68L139.76-2.96L148.04-3.44L149.24-7.76Z M189.08-7.08L189.08-7.08Q189.08-3.60 186.42-1.40Q183.76 0.80 179.72 0.80L179.72 0.80Q177.44 0.80 174.82 0.08Q172.20-0.64 170.72-1.88L170.72-1.88L170.76-2L170.72-3.40Q170.72-6.48 171.24-8.96L171.24-8.96L173.76-8.96L175.04-3.68Q177.56-2.16 181.04-2.16L181.04-2.16L181.92-2.20Q184.16-3.32 184.16-5.92L184.16-5.92Q184.16-8.16 181.44-9.72L181.44-9.72L175.12-12.96Q170.84-15.48 170.84-19.40L170.84-19.40Q170.84-22.76 173.60-24.86Q176.36-26.96 180.64-26.96L180.64-26.96Q183.92-26.96 187.88-25.64L187.88-25.64Q188.08-22.28 187.36-18.56L187.36-18.56L184.68-18.56L183.92-22.72Q181.68-24.04 178.64-24.04L178.64-24.04L177.44-24Q175.56-22.84 175.56-20.56L175.56-20.56Q175.56-18.44 178.44-16.92L178.44-16.92L184.44-13.96Q189.08-11.36 189.08-7.08Z M217.52-2.32L220.40-1.96L220.36 0L208.72 0L208.48-1.28Q209.80-2 212.16-2.80L212.16-2.80L210.28-7.64L200.12-7.64L198.12-2.48L202.04-1.96L202.00 0L191.40 0L191.16-1.28Q192.60-2.04 194.48-2.68L194.48-2.68L203.60-24.88L203.20-25.88L207.40-27.12L217.52-2.32ZM201.16-10.40L209.20-10.40L205.20-20.76L201.16-10.40Z M243.84-26.40L243.84-26.40L243.88-25.36Q243.88-22.24 243.32-18.80L243.32-18.80L240.60-18.80L240.08-23.32L234.24-23.64L234.24-2.52L238.60-1.96L238.56 0L225.40 0L225.16-1.28L228.08-2.40L229.36-2.84L229.36-23.64L223.52-23.32L223.00-18.80L220.32-18.80Q219.76-22.08 219.76-25.12L219.76-25.12L219.80-26.40L231.88-26.24Q238.24-26.24 243.84-26.40Z M266.76-7.08L266.76-7.08Q266.76-3.60 264.10-1.40Q261.44 0.80 257.40 0.80L257.40 0.80Q255.12 0.80 252.50 0.08Q249.88-0.64 248.40-1.88L248.40-1.88L248.44-2L248.40-3.40Q248.40-6.48 248.92-8.96L248.92-8.96L251.44-8.96L252.72-3.68Q255.24-2.16 258.72-2.16L258.72-2.16L259.60-2.20Q261.84-3.32 261.84-5.92L261.84-5.92Q261.84-8.16 259.12-9.72L259.12-9.72L252.80-12.96Q248.52-15.48 248.52-19.40L248.52-19.40Q248.52-22.76 251.28-24.86Q254.04-26.96 258.32-26.96L258.32-26.96Q261.60-26.96 265.56-25.64L265.56-25.64Q265.76-22.28 265.04-18.56L265.04-18.56L262.36-18.56L261.60-22.72Q259.36-24.04 256.32-24.04L256.32-24.04L255.12-24Q253.24-22.84 253.24-20.56L253.24-20.56Q253.24-18.44 256.12-16.92L256.12-16.92L262.12-13.96Q266.76-11.36 266.76-7.08Z"/></g>
</svg>
</g><g filter="url(#LH4pca1VU)"><g opacity="1" transform="rotate(0 392.0347 108.1024)">
<svg width="191.9307" height="92.3666" x="392.0347" y="108.1024" version="1.1" preserveAspectRatio="none" viewBox="20 61.5 160 77">
  <g transform="matrix(1 0 0 1 0 0)"><g><path d="M94.1 100l11.8-17.8H45.5L20 120.7h29.4L63.2 100h30.9z" data-color="1" style="fill:#FFFFFF;fill-opacity:1;"></path><path d="M80.4 120.7h-31l-11.8 17.8H98l25.5-38.5H94.1l-13.7 20.7z" data-color="2" style="fill:#D9D9D9;fill-opacity:1;"></path><path d="M94.1 100H63.2l-13.7 20.7h30.9L94.1 100z" opacity=".38" data-color="3" style="fill:#B4B4B4;fill-opacity:1;"></path><path d="M94.1 100H63.2l-13.7 20.7h30.9L94.1 100z" data-color="3" style="fill:#B4B4B4;fill-opacity:1;"></path><path d="M119.6 61.5l-13.7 20.7L94.1 100h60.4L180 61.5h-60.4z" data-color="3" style="fill:#B4B4B4;fill-opacity:1;"></path><path d="M94.1 100l11.8-17.8L94.1 100z" data-color="3" style="fill:#B4B4B4;fill-opacity:1;"></path></g></g>
</svg>
</g></g></svg>